<svg id="White_square_logo" data-name="White square logo" xmlns="http://www.w3.org/2000/svg" viewBox="0 0 161.97 197.5"><defs><style>.cls-1{fill:#5a17ee;fill-rule:evenodd}</style></defs><path class="cls-1" d="M134.48 40.72v-12h-50v50h12V63.67h26v15h12v-38zm-12 11h-26v-11h26zm-46 63.53v22.5h-49v-12h37v-7h-37v-31h49v12h-37v7h37v8.5zm58-15.53v-12h-50v50h12v-15.05h26v15h12v-38zm-12 11h-26v-11h26z"/><path d="M145.48 17.75v130.69h-20.73v22.28L87.27 150l-2.94-1.62H16.51V17.75h129m13-13H3.48v156.69h77.5l56.76 31.35v-31.35h20.74V4.75z" fill="#5a17ee"/><path class="cls-1" d="M60.39 59.69l15.36-5.59.73-.29V28.75h-49v1l-.11 49h12V67.34l9-3.26 13.5 14.67h14.82zm-21-5.12V40.75h25.09v4.68z"/></svg>